<svg width="40" height="41" viewBox="0 0 40 41" fill="none" xmlns="http://www.w3.org/2000/svg">
<g clip-path="url(#clip0_13_19)">
<path d="M17.4998 26.7159C13.3332 27.9659 13.3332 24.6326 11.6665 24.2159M23.3332 29.2159V25.9909C23.3644 25.5936 23.3107 25.1941 23.1757 24.8191C23.0406 24.4441 22.8273 24.1021 22.5498 23.8159C25.1665 23.5243 27.9165 22.5326 27.9165 17.9826C27.9163 16.8191 27.4687 15.7003 26.6665 14.8576C27.0464 13.8397 27.0195 12.7146 26.5915 11.7159C26.5915 11.7159 25.6082 11.4243 23.3332 12.9493C21.4232 12.4316 19.4098 12.4316 17.4998 12.9493C15.2248 11.4243 14.2415 11.7159 14.2415 11.7159C13.8135 12.7146 13.7866 13.8397 14.1665 14.8576C13.3583 15.7065 12.9103 16.8355 12.9165 18.0076C12.9165 22.5243 15.6665 23.5159 18.2832 23.8409C18.009 24.1242 17.7976 24.4621 17.6626 24.8325C17.5276 25.203 17.4722 25.5977 17.4998 25.9909V29.2159" stroke="#CCD6F6" stroke-width="1.66667" stroke-linecap="round" stroke-linejoin="round"/>
</g>
<defs>
<clipPath id="clip0_13_19">
<rect width="20" height="20" fill="white" transform="translate(10 10.8826)"/>
</clipPath>
</defs>
</svg>
