<svg width="19" height="21" viewBox="0 0 19 21" fill="none" xmlns="http://www.w3.org/2000/svg">
<path d="M7.49984 16.7159C3.33317 17.9659 3.33317 14.6326 1.6665 14.2159M13.3332 19.2159V15.9909C13.3644 15.5936 13.3107 15.1941 13.1757 14.8191C13.0406 14.4441 12.8273 14.1021 12.5498 13.8159C15.1665 13.5243 17.9165 12.5326 17.9165 7.9826C17.9163 6.81912 17.4687 5.70026 16.6665 4.8576C17.0464 3.83969 17.0195 2.71456 16.5915 1.71593C16.5915 1.71593 15.6082 1.42426 13.3332 2.94926C11.4232 2.43162 9.40983 2.43162 7.49984 2.94926C5.22484 1.42426 4.2415 1.71593 4.2415 1.71593C3.81348 2.71456 3.78662 3.83969 4.1665 4.8576C3.35828 5.70651 2.91027 6.83548 2.9165 8.0076C2.9165 12.5243 5.6665 13.5159 8.28317 13.8409C8.009 14.1242 7.79756 14.4621 7.66259 14.8325C7.52763 15.203 7.47218 15.5977 7.49984 15.9909V19.2159" stroke="#CCD6F6" stroke-width="1.66667" stroke-linecap="round" stroke-linejoin="round"/>
</svg>
